<svg style="display:none !important;" xmlns="http://www.w3.org/2000/svg">
    <symbol id="discord" xmlns="http://www.w3.org/2000/svg" xmlns:xlink="http://www.w3.org/1999/xlink"
            viewBox="0 0 24 19" style="enable-background:new 0 0 390 390;" xml:space="preserve" fill="none">
        <path d="M20.3175 1.49295C18.7875 0.80295 17.1475 0.29295 15.4325 0.00295017C15.4172 1.80819e-05 15.4014 0.00190762 15.3872 0.0083575C15.3731 0.0148074 15.3613 0.0254985 15.3535 0.0389502C15.1435 0.40795 14.9095 0.88895 14.7455 1.26895C12.9266 0.997187 11.0774 0.997187 9.25848 1.26895C9.07582 0.847811 8.86983 0.437174 8.64148 0.0389502C8.63374 0.0253329 8.62203 0.0143999 8.60792 0.0076103C8.5938 0.000820665 8.57795 -0.00150281 8.56248 0.000950073C6.84848 0.29095 5.20848 0.80095 3.67748 1.49195C3.66431 1.49747 3.65314 1.5069 3.64548 1.51895C0.533481 6.09395 -0.319519 10.556 0.0994806 14.962C0.100647 14.9727 0.103996 14.9832 0.109326 14.9926C0.114655 15.0021 0.121853 15.0104 0.130481 15.017C1.94687 16.3394 3.97282 17.3468 6.12348 17.997C6.13847 18.0016 6.15451 18.0016 6.16949 17.9969C6.18448 17.9923 6.19772 17.9832 6.20748 17.9709C6.66948 17.3509 7.08148 16.6959 7.43348 16.0079C7.45448 15.9679 7.43448 15.9199 7.39248 15.9039C6.74649 15.6607 6.12057 15.3671 5.52048 15.0259C5.5097 15.0198 5.50061 15.0111 5.49404 15.0005C5.48746 14.99 5.48361 14.978 5.48281 14.9656C5.48202 14.9532 5.48432 14.9408 5.48949 14.9295C5.49467 14.9183 5.50257 14.9084 5.51248 14.9009C5.63848 14.8079 5.76448 14.711 5.88448 14.614C5.89528 14.6052 5.90829 14.5997 5.92206 14.5979C5.93584 14.5961 5.94983 14.5982 5.96248 14.604C9.88948 16.368 14.1425 16.368 18.0235 14.604C18.0362 14.5979 18.0503 14.5955 18.0643 14.5971C18.0782 14.5987 18.0915 14.6042 18.1025 14.6129C18.2225 14.7109 18.3475 14.8079 18.4745 14.9009C18.4845 14.9083 18.4925 14.918 18.4979 14.9292C18.5032 14.9403 18.5057 14.9527 18.5051 14.9651C18.5045 14.9774 18.5008 14.9895 18.4945 15.0001C18.4881 15.0107 18.4791 15.0196 18.4685 15.0259C17.8705 15.3699 17.2485 15.661 16.5955 15.903C16.5855 15.9066 16.5763 15.9123 16.5687 15.9198C16.561 15.9272 16.5551 15.9362 16.5512 15.9462C16.5473 15.9561 16.5456 15.9668 16.5462 15.9774C16.5467 15.9881 16.5496 15.9985 16.5545 16.0079C16.9145 16.695 17.3265 17.3489 17.7795 17.9699C17.7889 17.9827 17.802 17.9922 17.8171 17.9972C17.8321 18.0022 17.8483 18.0025 17.8635 17.9979C20.0178 17.3496 22.0471 16.3417 23.8655 15.017C23.8744 15.0107 23.8818 15.0027 23.8873 14.9934C23.8928 14.9841 23.8963 14.9737 23.8975 14.9629C24.3975 9.86895 23.0595 5.44295 20.3485 1.52095C20.3418 1.5082 20.3308 1.49827 20.3175 1.49295ZM8.02048 12.2789C6.83848 12.2789 5.86348 11.2099 5.86348 9.89895C5.86348 8.58695 6.81948 7.51895 8.02048 7.51895C9.23048 7.51895 10.1965 8.59595 10.1775 9.89895C10.1775 11.2109 9.22148 12.2789 8.02048 12.2789ZM15.9955 12.2789C14.8125 12.2789 13.8385 11.2099 13.8385 9.89895C13.8385 8.58695 14.7935 7.51895 15.9955 7.51895C17.2055 7.51895 18.1715 8.59595 18.1525 9.89895C18.1525 11.2109 17.2065 12.2789 15.9955 12.2789Z" fill="#333333"/>
    </symbol>
    <symbol id="instagram" xmlns="http://www.w3.org/2000/svg" xmlns:xlink="http://www.w3.org/1999/xlink"
            viewBox="0 0 24 19" style="enable-background:new 0 0 390 390;" xml:space="preserve" fill="none">
        <path d="M11.9995 8.18288C9.89688 8.18288 8.181 9.89877 8.181 12.0014C8.181 14.104 9.89688 15.8199 11.9995 15.8199C14.1021 15.8199 15.818 14.104 15.818 12.0014C15.818 9.89877 14.1021 8.18288 11.9995 8.18288ZM23.4521 12.0014C23.4521 10.4201 23.4664 8.85319 23.3776 7.27481C23.2888 5.44148 22.8706 3.81439 21.53 2.47377C20.1865 1.13028 18.5622 0.714914 16.7289 0.626112C15.1477 0.53731 13.5807 0.551633 12.0023 0.551633C10.4211 0.551633 8.85417 0.53731 7.27579 0.626112C5.44245 0.714914 3.81537 1.13314 2.47475 2.47377C1.13126 3.81726 0.715891 5.44148 0.627089 7.27481C0.538287 8.85606 0.55261 10.423 0.55261 12.0014C0.55261 13.5798 0.538287 15.1495 0.627089 16.7279C0.715891 18.5613 1.13412 20.1883 2.47475 21.529C3.81823 22.8725 5.44245 23.2878 7.27579 23.3766C8.85704 23.4654 10.424 23.4511 12.0023 23.4511C13.5836 23.4511 15.1505 23.4654 16.7289 23.3766C18.5622 23.2878 20.1893 22.8696 21.53 21.529C22.8734 20.1855 23.2888 18.5613 23.3776 16.7279C23.4693 15.1495 23.4521 13.5826 23.4521 12.0014ZM11.9995 17.8766C8.74818 17.8766 6.12422 15.2527 6.12422 12.0014C6.12422 8.75007 8.74818 6.12611 11.9995 6.12611C15.2508 6.12611 17.8747 8.75007 17.8747 12.0014C17.8747 15.2527 15.2508 17.8766 11.9995 17.8766ZM18.1154 7.25762C17.3563 7.25762 16.7432 6.6446 16.7432 5.88549C16.7432 5.12637 17.3563 4.51335 18.1154 4.51335C18.8745 4.51335 19.4875 5.12637 19.4875 5.88549C19.4877 6.06574 19.4524 6.24427 19.3835 6.41085C19.3146 6.57742 19.2136 6.72878 19.0861 6.85624C18.9587 6.9837 18.8073 7.08476 18.6407 7.15364C18.4742 7.22251 18.2956 7.25785 18.1154 7.25762Z" fill="#333333"/>
    </symbol>
    <symbol id="twitter" xmlns="http://www.w3.org/2000/svg" xmlns:xlink="http://www.w3.org/1999/xlink"
            viewBox="0 0 24 20" style="enable-background:new 0 0 390 390;" xml:space="preserve" fill="none">
            <path fill-rule="evenodd" clip-rule="evenodd" d="M23.6923 3.14571C22.8193 3.52152 21.8826 3.77666 20.9 3.89044C21.9038 3.30431 22.6743 2.3734 23.0349 1.26666C22.0947 1.81141 21.0555 2.20446 19.9492 2.41823C19.062 1.49766 17.8002 0.921875 16.4005 0.921875C13.7177 0.921875 11.5404 3.04573 11.5404 5.66262C11.5404 6.03498 11.5828 6.397 11.6677 6.74178C7.62763 6.54526 4.0471 4.65585 1.65065 1.78728C1.23357 2.48718 0.993218 3.30086 0.993218 4.16971C0.993218 5.81432 1.85212 7.26585 3.15638 8.11401C2.3611 8.08987 1.61177 7.87611 0.954337 7.52099C0.954337 7.54167 0.954337 7.55891 0.954337 7.5796C0.954337 9.87584 2.62973 11.7928 4.85298 12.2272C4.4465 12.3341 4.01529 12.3927 3.57346 12.3927C3.25889 12.3927 2.95491 12.3617 2.65801 12.3065C3.27656 14.1891 5.07213 15.5613 7.19641 15.5992C5.53162 16.8714 3.43915 17.63 1.15934 17.63C0.767004 17.63 0.381735 17.6058 0 17.5645C2.14903 18.9091 4.70453 19.6952 7.4509 19.6952C16.3899 19.6952 21.2782 12.472 21.2782 6.20737C21.2782 6.0005 21.2747 5.79708 21.264 5.59366C22.2148 4.92478 23.0384 4.09041 23.6888 3.13882L23.6923 3.14571Z" fill="#333333"/>
    </symbol>
</svg>